<svg xmlns="http://www.w3.org/2000/svg" version="1.1" xmlns:xlink="http://www.w3.org/1999/xlink" xmlns:svgjs="http://svgjs.dev/svgjs" width="1000" height="1125" viewBox="0 0 1000 1125"><g transform="matrix(1,0,0,1,1.7053025658242404e-13,0)"><svg viewBox="0 0 320 360" data-background-color="#ffffff" preserveAspectRatio="xMidYMid meet" height="1125" width="1000" xmlns="http://www.w3.org/2000/svg" xmlns:xlink="http://www.w3.org/1999/xlink"><g id="tight-bounds" transform="matrix(1,0,0,1,0,0)"><svg viewBox="0 0 320 360" height="360" width="320"><g><svg></svg></g><g><svg viewBox="0 0 320 360" height="360" width="320"><g><path xmlns="http://www.w3.org/2000/svg" d="M20.961 227.22l3.726 4.658-1.863-6.056c-0.466-2.795-3.726 0.466-1.863 1.398M25.153 224.425c1.397 2.329 2.795 4.658 2.795 6.987 0 3.261 2.795 4.658 5.123 5.589-3.261-3.726-5.124-13.974-7.918-12.576M204.017 26.929c7.918 0 15.371-0.932 23.756 0.931 20.495 5.124 37.729 15.371 49.374 29.811l32.606 52.169c1.397 13.042 4.192 27.482 3.726 43.319 3.261 0 2.795-4.658 6.521-5.59-3.726 9.316-5.59 20.961-6.521 34.469-2.329-7.453 0-18.632 0.466-24.687-3.261 5.124-5.124 1.397-5.124-0.932 0.466-3.726-1.397-3.261-2.795-4.658-5.124-4.658-8.384-9.782-12.11-17.7 2.329-6.055 2.795-14.905-4.658-19.563-2.329-1.397-5.124-3.726-6.521-7.453-1.863-5.124-5.124-11.179-4.193-19.097 0.466-2.329-6.987 5.124-11.179 1.863-18.166-12.576-36.332-27.016-58.224-39.127-11.645 0-20.029-4.192-24.221-9.316-3.726-4.658-0.932-10.713 4.658-11.179 3.261 0 6.987-0.932 9.782 0.932 0.466-1.863 2.329-4.192 4.657-4.192M157.904 16.215l0.932 0.466c4.658 0.932 6.987 7.453 12.11 5.124 0 3.261 0.466 6.521-0.466 8.85-1.397 3.726-5.59 3.726-8.85 3.726-31.208-1.863-49.374 11.179-68.471 22.358-5.124 3.261-10.713 5.59-14.906 9.782-20.029 18.632-41.921 35.866-47.045 70.335l-4.192 38.195c-0.466 4.192-5.124 8.384-4.192 13.508l3.26 22.824c-3.261-3.261-5.124 0.932-4.192 2.795 0.466 1.397 2.329 6.055 5.124 1.863 3.726 6.987 7.453 20.495 12.576 26.55 15.837 18.632 36.332 35.4 53.101 52.169 4.192-0.932 7.453-0.932 8.384-3.727 1.397 2.795-1.397 5.59-3.726 6.056 7.453 4.658 15.837 8.85 27.016 9.781 14.44 0.932 27.948 3.261 40.524 6.522 6.521-1.863 13.042-2.795 20.029-3.261 2.329 0 3.726-3.726 6.521-4.658l0.466-4.658c2.795 4.192 2.329-1.397 0.466-4.192 3.261 2.795 4.192 5.124 5.589 6.987 0-1.397 3.726-6.521 3.727-0.466l0.931-6.055c1.397-0.932 1.863 5.124 3.261 0.931 1.397-4.192 4.192-0.932 6.987-2.329-0.932 1.863-0.466 5.59 2.794 3.261l3.727-3.261c2.329 5.59 6.055 3.261 7.918 2.329 20.495-13.042 40.99-28.413 60.553-43.784l-0.466 6.055 2.329-7.453c2.329 2.329 4.192 0.466 5.124-0.931 2.795-4.658 6.521-9.316 12.577-13.508-7.453 20.029-16.303 35.866-27.482 48.908l-4.658 5.59c0 3.261-0.932 7.453-4.658 7.918-1.863 0.466-5.59-0.932-8.384 1.863-1.397 1.863 3.261 5.59-0.466 2.795-3.261-2.329-6.521 0-10.248 0.932-2.795 0.932 1.863 3.726 2.795 5.589 0.932 1.863 1.863 3.726 1.398 6.056l-5.124-5.59c-6.055 3.261-9.782 9.316-14.906 13.974-2.329 1.863-1.397 5.124-1.397 7.918-3.261 0-6.987-0.932-8.85 0.932-1.397 1.863-0.932 4.658-0.932 7.453-4.658-0.466-5.124-7.453-9.315-6.056-4.192 0.932-8.85 1.397-12.577 3.727 2.795 5.59-4.658 2.329-3.726 3.26-6.987-4.192-13.042-7.453-20.495-4.658-15.837-5.124-35.4-2.795-49.84-0.931 0-2.329 0.466-4.658-0.466-5.124-0.932 2.329-3.726 1.397-3.26 1.397-8.85-6.055-17.7-9.782-27.016-14.905-8.384 0.932-16.303-3.261-18.632-5.59-6.521-6.055-13.974-2.795-20.029-4.192-13.042-3.261-17.7-16.769-19.098-26.084-0.932-4.658-4.658-6.521-6.055-6.056-6.055-19.563-15.371-37.263-22.824-55.429-1.863-4.658-1.397-9.316-1.397-14.44 2.329 0.932 4.658 0.466 4.192-2.794-2.329-15.371-7.918-27.016-13.974-38.195 3.261-15.837 3.726-34.469 11.179-48.443 6.521-12.576 18.632-19.098 27.016-29.811 2.795-3.726 2.795-8.85 5.59-12.11 9.316-9.316 18.632-19.098 28.879-27.482 4.658-3.726 10.247 0 17.234-1.397 2.329-8.384 11.645-15.837 20.495-13.508 3.726 0.932 11.179-8.85 13.508-9.782 3.726-1.397 1.863 3.726 1.863 6.987 8.85-6.987 20.961-10.713 32.14-14.906" fill="#ff0000" fill-rule="nonzero" stroke="none" stroke-width="1" stroke-linecap="butt" stroke-linejoin="miter" stroke-miterlimit="10" stroke-dasharray="" stroke-dashoffset="0" font-family="none" font-weight="none" font-size="none" text-anchor="none" style="mix-blend-mode: normal" data-fill-palette-color="tertiary"></path></g><g transform="matrix(1,0,0,1,109.03901101211657,90)"><svg viewBox="0 0 101.92197797576685 180" height="180" width="101.92197797576685"><g><svg viewBox="0 0 101.92197797576685 180" height="180" width="101.92197797576685"><g><svg viewBox="0 0 136.754862631579 241.51685203300246" height="180" width="101.92197797576685"><g><svg viewBox="0 0 136.754862631579 241.51685203300246" height="241.51685203300246" width="136.754862631579"><g id="textblocktransform"><svg viewBox="0 0 136.754862631579 241.51685203300246" height="241.51685203300246" width="136.754862631579" id="textblock"><g><svg viewBox="0 0 136.754862631579 178.88760000000005" height="178.88760000000005" width="136.754862631579"><g transform="matrix(1,0,0,1,0,0)"><svg width="136.754862631579" viewBox="1.5099999904632568 -36.77000045776367 28.369998931884766 37.11000061035156" height="178.88760000000005" data-palette-color="#ff0000"><path d="M29.88-20.95L29.88-20.95Q29.88-19.87 29.79-17.9 29.69-15.92 29.42-13.55 29.15-11.18 28.66-8.72 28.17-6.25 27.39-4.25 26.61-2.25 25.49-0.95 24.37 0.34 22.8 0.34L22.8 0.34Q21.34 0.34 20.12-0.51 18.9-1.37 17.92-2.61 16.94-3.86 16.21-5.27 15.48-6.69 14.99-7.86L14.99-7.86Q13.96-10.35 12.94-12.77 11.91-15.19 10.99-17.68L10.99-17.68 10.99-16.31Q10.99-14.21 10.96-12.13 10.94-10.06 10.64-8.01L10.64-8.01Q10.55-7.18 10.42-6.08 10.3-4.98 10.06-3.91 9.81-2.83 9.35-1.9 8.89-0.98 8.11-0.54L8.11-0.54Q7.67-0.29 7.3-0.24 6.93-0.2 6.49-0.1L6.49-0.1 6.35-0.1Q5.22-0.1 4.44-0.85 3.66-1.61 3.13-2.81 2.59-4 2.27-5.49 1.95-6.98 1.78-8.42 1.61-9.86 1.56-11.08 1.51-12.3 1.51-13.04L1.51-13.04Q1.51-14.16 1.61-16.33 1.71-18.51 2.03-21.14 2.34-23.78 2.86-26.56 3.37-29.35 4.2-31.62 5.03-33.89 6.2-35.33 7.37-36.77 8.94-36.77L8.94-36.77Q10.45-36.77 11.65-35.6 12.84-34.42 13.77-32.81 14.7-31.2 15.33-29.44 15.97-27.69 16.41-26.51L16.41-26.51Q17.24-24.22 18.02-21.95 18.8-19.68 19.53-17.33L19.53-17.33Q19.58-17.24 19.73-16.8 19.87-16.36 20.07-15.82L20.07-15.82Q20.26-15.23 20.56-14.5L20.56-14.5Q20.56-15.14 20.53-15.41 20.51-15.67 20.51-15.89 20.51-16.11 20.51-16.46 20.51-16.8 20.51-17.53L20.51-17.53Q20.46-19.14 20.43-20.75 20.41-22.36 20.41-23.93L20.41-23.93Q20.41-24.61 20.43-25.83 20.46-27.05 20.58-28.44 20.7-29.83 20.95-31.25 21.19-32.67 21.66-33.81 22.12-34.96 22.83-35.69 23.54-36.43 24.56-36.43L24.56-36.43Q25.78-36.43 26.66-35.5 27.54-34.57 28.13-33.13 28.71-31.69 29.05-29.91 29.39-28.13 29.59-26.42 29.79-24.71 29.83-23.24 29.88-21.78 29.88-20.95Z" opacity="1" transform="matrix(1,0,0,1,0,0)" fill="#ff0000" class="wordmark-text-0" data-fill-palette-color="primary" id="text-0"></path></svg></g></svg></g><g transform="matrix(1,0,0,1,0,204.99159414240006)"><svg viewBox="0 0 136.754862631579 36.5252578906024" height="36.5252578906024" width="136.754862631579"><g transform="matrix(1,0,0,1,0,0)"><svg width="136.754862631579" viewBox="4 -33.70000076293945 127.28999328613281 34" height="36.5252578906024" data-palette-color="#ca3433"><path d="M7.1-14.25L7.1 0 4 0 4-33.7 8.25-33.7 16.85-19.45 26.35-3.65Q26.25-8.85 26.25-19.4L26.25-19.4 26.25-33.7 29.35-33.7 29.35 0 25.1 0 16.55-14.15 7-30.05Q7.1-24.65 7.1-14.25L7.1-14.25ZM44.5-2.55L44.5-2.55Q47.5-2.55 49.3-4.2 51.1-5.85 51.1-8.4L51.1-8.4 51.1-12.05 46.15-12.05Q42.6-12.05 40.85-10.68 39.1-9.3 39.1-7.25L39.1-7.25Q39.1-5.15 40.47-3.85 41.85-2.55 44.5-2.55ZM51.1 0L51.1-2.95Q49 0.25 43.8 0.25L43.8 0.25Q40.3 0.25 38.07-1.83 35.85-3.9 35.85-7.15L35.85-7.15Q35.85-10.8 38.67-12.83 41.5-14.85 46.15-14.85L46.15-14.85 51.1-14.85 51.1-16Q51.1-19.4 49.65-21.13 48.2-22.85 44.8-22.85L44.8-22.85Q40.85-22.85 37.7-20.7L37.7-20.7 37.7-24Q40.6-25.75 44.85-25.75L44.85-25.75Q54.15-25.75 54.15-16L54.15-16 54.15 0 51.1 0ZM73.35-8.3L71 0 66.9 0 59.15-25.35 62.5-25.35 65-16.95Q66.4-12.25 67.37-8.78 68.35-5.3 68.65-4.2L68.65-4.2 68.9-3.05Q69.8-6.3 72.9-17L72.9-17 75.3-25.35 78.9-25.35 81.4-17 85.5-2.95Q86.3-5.9 89.75-17L89.75-17 92.35-25.35 95.55-25.35 87.55 0 83.45 0 81-8.3 77.1-21.8Q76.25-18.65 73.35-8.3L73.35-8.3ZM103.89-14.15L103.89 0 100.84 0 100.84-25.35 103.89-25.35 103.89-21.05Q105.99-25.65 110.99-25.65L110.99-25.65Q111.34-25.65 112.24-25.55L112.24-25.55 112.24-22.45Q111.24-22.75 110.24-22.75L110.24-22.75Q107.54-22.75 105.72-20.08 103.89-17.4 103.89-14.15L103.89-14.15ZM131.29-6.5L131.29-6.5Q131.29-3.35 129.12-1.53 126.94 0.3 123.14 0.3L123.14 0.3Q118.54 0.3 115.74-1.2L115.74-1.2 115.74-4.35Q119.09-2.45 122.94-2.45L122.94-2.45Q125.49-2.45 126.82-3.5 128.14-4.55 128.14-6.25L128.14-6.25Q128.14-8.25 126.77-9.35 125.39-10.45 122.24-11.7L122.24-11.7Q119.19-12.9 117.39-14.5 115.59-16.1 115.59-18.9L115.59-18.9Q115.59-21.95 117.84-23.78 120.09-25.6 123.49-25.6L123.49-25.6Q127.59-25.6 129.79-24.45L129.79-24.45 129.79-21.4Q127.44-22.75 123.44-22.75L123.44-22.75Q121.24-22.75 119.97-21.73 118.69-20.7 118.69-19.05L118.69-19.05Q118.69-18.05 119.07-17.3 119.44-16.55 120.37-15.93 121.29-15.3 121.94-15 122.59-14.7 124.04-14.1L124.04-14.1Q127.54-12.7 129.42-11.03 131.29-9.35 131.29-6.5Z" opacity="1" transform="matrix(1,0,0,1,0,0)" fill="#ca3433" class="slogan-text-1" data-fill-palette-color="secondary" id="text-1"></path></svg></g></svg></g></svg></g></svg></g><g></g></svg></g></svg></g></svg></g></svg></g><defs></defs></svg><rect width="320" height="360" fill="none" stroke="none" visibility="hidden"></rect></g></svg></g></svg>